<svg width="24" height="24" viewBox="0 0 24 24" fill="none" xmlns="http://www.w3.org/2000/svg">
<path d="M2.4541 12.0001C3.93127 8.39462 7.36816 6 12 6C16.6319 6 20.0687 8.39462 21.5459 12.0001C20.0687 15.6056 16.6319 18.0002 12 18.0002C7.36816 18.0002 3.93127 15.6056 2.4541 12.0001ZM12 8C9.23858 8 7 10.2386 7 13C7 15.7614 9.23858 18 12 18C14.7614 18 17 15.7614 17 13C17 12.6683 16.9819 12.3411 16.9463 12.0194L14.8284 14.1373C14.439 14.5268 13.806 14.5268 13.4155 14.1373C13.025 13.7478 13.025 13.1147 13.4155 12.7242L15.5334 10.6063C15.2117 10.5708 14.8845 10.5527 14.5528 10.5527C11.7914 10.5527 9.553 8.31408 9.553 5.55271C9.553 5.22098 9.5349 4.89374 9.49941 4.57208L7.38148 6.68999C6.99096 7.08052 6.3579 7.08052 5.96739 6.68999C5.57686 6.29948 5.57686 5.6664 5.96739 5.27588L8.0853 3.15798C7.76363 3.12248 7.4364 3.10437 7.10468 3.10437C3.34331 3.10437 1.10474 5.34274 1.10474 9.10412C1.10474 10.3581 1.50984 11.5388 2.1733 12.6003L2.4541 12.0001Z" fill="black"/>
</svg>
