<svg width="24" height="24" viewBox="0 0 24 24" fill="none" xmlns="http://www.w3.org/2000/svg">
<path d="M20 12V19C20 19.5523 19.5523 20 19 20H5C4.44772 20 4 19.5523 4 19V12H2V9C2 8.44772 2.44772 8 3 8H6.268C6.00982 7.57309 5.8959 7.06439 6.05322 6.5796C6.36769 5.66135 7.30079 5 8.26797 5C9.20228 5 10.0966 5.4759 10.6436 6.24384C11.1906 5.4759 12.0849 5 13.0192 5C13.9864 5 14.9195 5.66135 15.234 6.5796C15.3913 7.06439 15.2774 7.57309 15.0192 8H19C19.5523 8 20 8.44772 20 9V12H20ZM8.26797 7C7.83762 7 7.45531 7.24516 7.24114 7.62815C7.02697 8.01115 7.00461 8.48766 7.17892 8.8953C7.35324 9.30295 7.70083 9.58988 8.11427 9.69617L9.46484 6.70703C9.1096 6.55186 8.68211 6.48401 8.26797 6.5V7ZM13.0192 7C12.589 7 12.2067 7.24516 11.9925 7.62815C11.7783 8.01115 11.756 8.48766 11.9303 8.8953C12.1047 9.30295 12.4523 9.58988 12.8657 9.69617L14.2163 6.70703C13.8611 6.55186 13.4336 6.48401 13.0192 6.5V7Z" fill="black"/>
</svg>
