<svg width="24" height="24" viewBox="0 0 24 24" fill="none" xmlns="http://www.w3.org/2000/svg">
<path d="M14 3H5C4.44772 3 4 3.44772 4 4V20C4 20.5523 4.44772 21 5 21H14V19H7V5H14V3ZM20.2929 11.2929L16.2929 7.29289C15.9024 6.90237 15.2692 6.90237 14.8787 7.29289C14.4882 7.68342 14.4882 8.31643 14.8787 8.70696L16.5858 10.4141H9.99999V13.5859H16.5858L14.8787 15.293C14.4882 15.6835 14.4882 16.3165 14.8787 16.707C15.2692 17.0976 15.9024 17.0976 16.2929 16.707L20.2929 12.707C20.6834 12.3164 20.6834 11.6834 20.2929 11.2929Z" fill="black"/>
</svg>
