<svg width="24" height="24" viewBox="0 0 24 24" fill="none" xmlns="http://www.w3.org/2000/svg">
<path d="M10 6V4C10 3.44772 10.4477 3 11 3H20C20.5523 3 21 3.44772 21 4V20C21 20.5523 20.5523 21 20 21H11C10.4477 21 10 20.5523 10 20V18H8V6H10ZM2 12.5H15.5858L12.2929 15.7929C11.9024 16.1834 11.9024 16.8165 12.2929 17.207C12.6834 17.5976 13.3166 17.5976 13.7071 17.207L17.7071 13.207C18.0976 12.8165 18.0976 12.1834 17.7071 11.7929L13.7071 7.79289C13.3166 7.40237 12.6834 7.40237 12.2929 7.79289C11.9024 8.18342 11.9024 8.81643 12.2929 9.20696L15.5858 12.5H2V12.5Z" fill="black"/>
</svg>
