<svg width="24" height="24" viewBox="0 0 24 24" fill="none" xmlns="http://www.w3.org/2000/svg">
<path d="M12 13C9.23858 13 7 15.2386 7 18C7 18.5523 7.44772 19 8 19H16C16.5523 19 17 18.5523 17 18C17 15.2386 14.7614 13 12 13ZM7 10C6.44772 10 6 10.4477 6 11C6 12.657 7.34315 14 9 14C10.6569 14 12 12.657 12 11C12 10.4477 11.5523 10 11 10C9.89543 10 9 9.10457 9 8C9 6.89543 9.89543 6 11 6C11.5523 6 12 5.55228 12 5C12 3.34315 10.6569 2 9 2C7.34315 2 6 3.34315 6 5C6 7.10457 4.89543 8 3.791 8C3.23872 8 2.791 8.44772 2.791 9C2.791 10.657 4.13415 12 5.791 12C6.34328 12 6 12 7 10Z" fill="black"/>
</svg>
