<svg width="24" height="24" viewBox="0 0 24 24" fill="none" xmlns="http://www.w3.org/2000/svg">
<path d="M11 4C7.13401 4 4 7.13401 4 11C4 14.866 7.13401 18 11 18C12.8454 18 14.5436 17.3326 15.8284 16.2426L20.2929 20.7071C20.6834 21.0976 21.3166 21.0976 21.7071 20.7071C22.0976 20.3166 22.0976 19.6834 21.7071 19.2929L17.2426 14.8284C18.3326 13.5436 19 11.8454 19 10C19 6.13401 15.866 3 12 3H11ZM11 6C13.7614 6 16 8.23858 16 11C16 13.7614 13.7614 16 11 16C8.23858 16 6 13.7614 6 11C6 8.23858 8.23858 6 11 6Z" fill="black"/>
</svg>
